# xmcd
# 
# Track frame offsets:
#     150
#     16287
#     37877
#     53930
#     71665
#     89217
#     105797
#     126667
#     144232
#     166020
#     181425
#     198832
#     216265
#     237420
#     254207
#     274370
# 
# Disc length: 3890
# 
# Revision: 3
# Processed by: cddbd v1.5.2PL0 Copyright (c) Steve Scherf et al.
# Submitted via: BonkEnc v1.0
# 
DISCID=f00f3010
DTITLE=Backstreet Boys - Greatest Hits - Chapter One
DYEAR=2001
DGENRE=Blues
TTITLE0=I Want It That Way
TTITLE1=Everybody (Backstreet's Back)
TTITLE2=As Long As You Love Me
TTITLE3=Show Me The Meaning Of Being Lonely
TTITLE4=Quit Playing Games (With My Heart)
TTITLE5=We've Got It Going On
TTITLE6=All I Have To Give
TTITLE7=Larger Than Life
TTITLE8=I'll Never Break Your Heart
TTITLE9=The Call
TTITLE10=Shape Of My Heart
TTITLE11=Get Down (You're The One For Me)
TTITLE12=Anywhere For You
TTITLE13=More Than That
TTITLE14=Drowning
TTITLE15=Non Puoi Lasciarmi Così
EXTD=
EXTT0=
EXTT1=
EXTT2=
EXTT3=
EXTT4=
EXTT5=
EXTT6=
EXTT7=
EXTT8=
EXTT9=
EXTT10=
EXTT11=
EXTT12=
EXTT13=
EXTT14=
EXTT15=
PLAYORDER=
